<svg width="73" height="74" viewBox="0 0 73 74" fill="none" xmlns="http://www.w3.org/2000/svg">
<path d="M72.6748 13.7875C72.6748 6.18489 66.5597 0 59.0429 0C51.5261 0 45.4102 6.18489 45.4102 13.7875C45.4102 18.8822 48.2508 23.6027 52.6954 25.976V47.5285C48.2508 49.9018 45.4102 54.6223 45.4102 59.7161C45.4102 67.3187 51.5261 73.5045 59.0429 73.5045C66.5597 73.5045 72.6748 67.3187 72.6748 59.7161C72.6748 54.6223 69.8342 49.9018 65.3896 47.5285V25.976C69.8342 23.6027 72.6748 18.8822 72.6748 13.7875ZM64.0917 48.9255C68.2018 50.8968 70.8579 55.1328 70.8579 59.7161C70.8579 66.3057 65.5581 71.6669 59.0429 71.6669C52.5277 71.6669 47.227 66.3057 47.227 59.7161C47.227 55.1328 49.8831 50.8968 53.9933 48.9255C54.31 48.7739 54.5123 48.4509 54.5123 48.0955V25.4089C54.5123 25.0536 54.31 24.7306 53.9933 24.579C49.8831 22.6077 47.227 18.3716 47.227 13.7875C47.227 7.19791 52.5277 1.83761 59.0429 1.83761C65.5581 1.83761 70.8579 7.19791 70.8579 13.7875C70.8579 18.3716 68.2018 22.6077 64.0917 24.579C63.775 24.7306 63.5727 25.0536 63.5727 25.4089V48.0955C63.5727 48.4509 63.775 48.7739 64.0917 48.9255Z" fill="#747873"/>
<path d="M61.877 54.6641C61.5842 55.0769 61.6782 55.6511 62.0854 55.9463C63.4552 56.9387 64.2722 58.5466 64.2722 60.2479C64.2722 60.7557 64.6786 61.1667 65.1807 61.1667C65.6828 61.1667 66.0891 60.7557 66.0891 60.2479C66.0891 57.9562 64.9882 55.7893 63.1447 54.4533C62.7348 54.1563 62.1688 54.2514 61.877 54.6641Z" fill="#747873"/>
<path d="M65.1807 14.578C65.6828 14.578 66.0891 14.167 66.0891 13.6591C66.0891 11.3666 64.9882 9.19971 63.1447 7.86367C62.7348 7.56668 62.1688 7.66179 61.877 8.07453C61.5842 8.48728 61.6782 9.06153 62.0854 9.35673C63.4552 10.3491 64.2722 11.9579 64.2722 13.6591C64.2722 14.167 64.6786 14.578 65.1807 14.578Z" fill="#747873"/>
<path d="M35.9498 67.9333V40.0354C35.9498 36.7002 34.533 33.5526 32.1377 31.3543C34.7131 30.6616 36.6161 28.282 36.6161 25.4619V14.9261C36.6161 11.5649 33.9129 8.83005 30.5897 8.83005H23.7995V1.83761H24.6609C25.163 1.83761 25.5693 1.42666 25.5693 0.918806C25.5693 0.41095 25.163 0 24.6609 0H11.9552C11.4531 0 11.0467 0.41095 11.0467 0.918806C11.0467 1.42666 11.4531 1.83761 11.9552 1.83761H12.8166V8.83005H6.02727C2.70402 8.83005 0 11.5649 0 14.9261V25.4619C0 28.282 1.90293 30.6607 4.47831 31.3543C2.08302 33.5526 0.666247 36.7002 0.666247 40.0354V67.9333C0.666247 71.0056 3.13695 73.5045 6.17454 73.5045H30.4415C33.4791 73.5045 35.9498 71.0056 35.9498 67.9333ZM14.6335 1.83761H21.9826V8.83005H14.6335V1.83761ZM2.48312 67.9333V61.5851H9.49778C9.99991 61.5851 10.4062 61.1742 10.4062 60.6663C10.4062 60.1585 9.99991 59.7475 9.49778 59.7475H2.48312V52.2723H9.49778C9.99991 52.2723 10.4062 51.8614 10.4062 51.3535C10.4062 50.8457 9.99991 50.4347 9.49778 50.4347H2.48312V42.9605H9.49778C9.99991 42.9605 10.4062 42.5495 10.4062 42.0417C10.4062 41.5338 9.99991 41.1228 9.49778 41.1228H2.48312V40.0354C2.48312 36.4893 4.38339 33.1955 7.44315 31.4377C7.80156 31.2322 7.9781 30.8078 7.87253 30.404C7.76696 30.0012 7.40678 29.7203 6.99426 29.7203H6.02727C3.70561 29.7203 1.81687 27.81 1.81687 25.4619V14.9261C1.81687 12.578 3.70561 10.6677 6.02727 10.6677H30.5897C32.9105 10.6677 34.7992 12.578 34.7992 14.9261V25.4619C34.7992 27.81 32.9105 29.7203 30.5897 29.7203H29.6218C29.2093 29.7203 28.8491 30.0012 28.7435 30.404C28.638 30.8078 28.8145 31.2322 29.1729 31.4377C32.2327 33.1955 34.1329 36.4893 34.1329 40.0354V41.1228H27.1192C26.617 41.1228 26.2107 41.5338 26.2107 42.0417C26.2107 42.5495 26.617 42.9605 27.1192 42.9605H34.1329V50.4347H27.1192C26.617 50.4347 26.2107 50.8457 26.2107 51.3535C26.2107 51.8614 26.617 52.2723 27.1192 52.2723H34.1329V59.7475H27.1192C26.617 59.7475 26.2107 60.1585 26.2107 60.6663C26.2107 61.1742 26.617 61.5851 27.1192 61.5851H34.1329V67.9333C34.1329 69.9917 32.4766 71.6669 30.4415 71.6669H6.17454C4.13942 71.6669 2.48312 69.9917 2.48312 67.9333Z" fill="#747873"/>
</svg>
