<svg width="23" height="23" viewBox="0 0 23 23" fill="none" xmlns="http://www.w3.org/2000/svg">
<circle cx="11.7401" cy="11.5521" r="10.8896" fill="white"/>
<path d="M9.19724 12.7639H10.5376V18.4949C10.5376 18.608 10.6258 18.6997 10.7348 18.6997H13.0074C13.1163 18.6997 13.2046 18.608 13.2046 18.4949V12.7909H14.7455C14.8457 12.7909 14.93 12.7128 14.9414 12.6094L15.1754 10.4996C15.1818 10.4415 15.1641 10.3834 15.1267 10.3398C15.0893 10.2962 15.0358 10.2713 14.9795 10.2713H13.2047V8.94871C13.2047 8.55004 13.4114 8.34786 13.8191 8.34786C13.8772 8.34786 14.9795 8.34786 14.9795 8.34786C15.0885 8.34786 15.1768 8.25613 15.1768 8.14303V6.20635C15.1768 6.09319 15.0885 6.00151 14.9795 6.00151H13.3803C13.369 6.00094 13.3439 6 13.307 6C13.0295 6 12.065 6.05658 11.3031 6.78455C10.4589 7.59128 10.5763 8.55718 10.6043 8.72466V10.2712H9.19722C9.08827 10.2712 9 10.3629 9 10.4761V12.559C9.00002 12.6721 9.08829 12.7639 9.19724 12.7639Z" fill="#192023"/>
</svg>
