<svg width="34" height="33" viewBox="0 0 34 33" fill="none" xmlns="http://www.w3.org/2000/svg">
<rect x="0.964355" y="0.146118" width="32.6687" height="32.6687" rx="16.3343" fill="#FFF1EB"/>
<g filter="url(#filter0_dd_1350_21)">
<path d="M25.2406 11.7748C24.397 10.8593 23.2396 10.3551 21.9811 10.3551C21.0405 10.3551 20.1791 10.6527 19.4207 11.2395C19.038 11.5357 18.6913 11.8981 18.3855 12.3211C18.08 11.8982 17.7331 11.5357 17.3503 11.2395C16.592 10.6527 15.7306 10.3551 14.7899 10.3551C13.5315 10.3551 12.3739 10.8593 11.5304 11.7748C10.6969 12.6796 10.2378 13.9157 10.2378 15.2555C10.2378 16.6346 10.7514 17.8969 11.854 19.2283C12.8404 20.4192 14.2581 21.6282 15.8998 23.0281C16.4604 23.5062 17.0958 24.0481 17.7556 24.6254C17.9299 24.7781 18.1536 24.8622 18.3855 24.8622C18.6174 24.8622 18.8412 24.7781 19.0152 24.6256C19.675 24.0483 20.3108 23.5061 20.8717 23.0278C22.5131 21.6281 23.9308 20.4192 24.9172 19.2282C26.0198 17.8969 26.5333 16.6346 26.5333 15.2554C26.5333 13.9157 26.0742 12.6796 25.2406 11.7748Z" fill="#FF6726"/>
</g>
<defs>
<filter id="filter0_dd_1350_21" x="6.23779" y="10.3551" width="24.2954" height="22.5071" filterUnits="userSpaceOnUse" color-interpolation-filters="sRGB">
<feFlood flood-opacity="0" result="BackgroundImageFix"/>
<feColorMatrix in="SourceAlpha" type="matrix" values="0 0 0 0 0 0 0 0 0 0 0 0 0 0 0 0 0 0 127 0" result="hardAlpha"/>
<feOffset dy="4"/>
<feGaussianBlur stdDeviation="2"/>
<feComposite in2="hardAlpha" operator="out"/>
<feColorMatrix type="matrix" values="0 0 0 0 0 0 0 0 0 0 0 0 0 0 0 0 0 0 0.25 0"/>
<feBlend mode="normal" in2="BackgroundImageFix" result="effect1_dropShadow_1350_21"/>
<feColorMatrix in="SourceAlpha" type="matrix" values="0 0 0 0 0 0 0 0 0 0 0 0 0 0 0 0 0 0 127 0" result="hardAlpha"/>
<feOffset dy="4"/>
<feGaussianBlur stdDeviation="2"/>
<feComposite in2="hardAlpha" operator="out"/>
<feColorMatrix type="matrix" values="0 0 0 0 0 0 0 0 0 0 0 0 0 0 0 0 0 0 0.25 0"/>
<feBlend mode="normal" in2="effect1_dropShadow_1350_21" result="effect2_dropShadow_1350_21"/>
<feBlend mode="normal" in="SourceGraphic" in2="effect2_dropShadow_1350_21" result="shape"/>
</filter>
</defs>
</svg>
