<svg width="23" height="23" viewBox="0 0 23 23" fill="none" xmlns="http://www.w3.org/2000/svg">
<circle cx="11.1313" cy="11.5521" r="10.8896" fill="white"/>
<path d="M16.1182 8.09591C15.7047 8.28176 15.2642 8.40496 14.8049 8.46477C15.2774 8.17566 15.638 7.72135 15.8076 7.17375C15.367 7.44292 14.8806 7.63305 14.3622 7.73915C13.9439 7.2827 13.3477 7 12.6973 7C11.4354 7 10.4194 8.04962 10.4194 9.33637C10.4194 9.52151 10.4347 9.69954 10.4722 9.86901C8.57728 9.77431 6.90052 8.8436 5.7741 7.42583C5.57745 7.77547 5.4621 8.17566 5.4621 8.60648C5.4621 9.41541 5.86861 10.1325 6.47455 10.5476C6.10835 10.5405 5.74909 10.4316 5.44473 10.26C5.44473 10.2671 5.44473 10.2763 5.44473 10.2856C5.44473 11.4207 6.23481 12.3635 7.27089 12.5807C7.08536 12.6326 6.88314 12.6576 6.67329 12.6576C6.52736 12.6576 6.38005 12.649 6.24176 12.6177C6.53709 13.5427 7.37513 14.2227 8.37159 14.2448C7.5961 14.8665 6.61144 15.241 5.54549 15.241C5.35856 15.241 5.17928 15.2325 5 15.209C6.00967 15.8762 7.20627 16.2572 8.49667 16.2572C12.691 16.2572 14.9841 12.6967 14.9841 9.61053C14.9841 9.50727 14.9807 9.40758 14.9758 9.3086C15.4282 8.97961 15.8083 8.56874 16.1182 8.09591Z" fill="#192023"/>
</svg>
