<svg width="8" height="7" viewBox="0 0 8 7" fill="none" xmlns="http://www.w3.org/2000/svg">
<path d="M6.36872 0.85633C6.485 0.743757 6.63974 0.681522 6.80029 0.682757C6.96084 0.683993 7.11464 0.748602 7.22923 0.862951C7.34383 0.9773 7.41025 1.13245 7.4145 1.29565C7.41874 1.45885 7.36047 1.61735 7.25198 1.7377L3.95832 5.92631C3.90169 5.98834 3.83333 6.03812 3.75735 6.07267C3.68136 6.10722 3.5993 6.12584 3.51607 6.12741C3.43285 6.12897 3.35017 6.11346 3.27298 6.08179C3.19578 6.05012 3.12566 6.00295 3.06681 5.94309L0.882595 3.72204C0.821768 3.66441 0.772981 3.5949 0.739143 3.51768C0.705305 3.44046 0.68711 3.35709 0.685643 3.27256C0.684177 3.18803 0.699468 3.10407 0.730606 3.02568C0.761744 2.94729 0.80809 2.87608 0.86688 2.8163C0.925669 2.75652 0.995697 2.70939 1.07279 2.67773C1.14988 2.64606 1.23245 2.63051 1.31558 2.632C1.3987 2.6335 1.48069 2.652 1.55663 2.68641C1.63257 2.72081 1.70092 2.77043 1.7576 2.83228L3.48615 4.58914L6.35303 0.874797C6.35819 0.868334 6.36371 0.862169 6.36954 0.85633H6.36872Z" fill="#5ABA4A"/>
</svg>
